<svg width="192" height="31" viewBox="0 0 192 31" fill="none" xmlns="http://www.w3.org/2000/svg">
<path d="M61.3081 24.198C59.8121 24.198 58.4994 23.8753 57.3701 23.23C56.2554 22.5847 55.3974 21.6607 54.7961 20.458C54.1947 19.2553 53.8941 17.8473 53.8941 16.234C53.8941 14.6207 54.1947 13.22 54.7961 12.032C55.3974 10.8293 56.2554 9.90533 57.3701 9.26C58.4994 8.61467 59.8121 8.292 61.3081 8.292C62.2761 8.292 63.1854 8.43867 64.0361 8.732C64.8867 9.01067 65.6421 9.42133 66.3021 9.964C66.4927 10.1107 66.6247 10.2647 66.6981 10.426C66.7714 10.5873 66.8081 10.7853 66.8081 11.02C66.8081 11.3427 66.7201 11.614 66.5441 11.834C66.3681 12.054 66.1554 12.164 65.9061 12.164C65.6127 12.164 65.3121 12.0613 65.0041 11.856C64.3734 11.3867 63.7867 11.064 63.2441 10.888C62.7014 10.6973 62.1001 10.602 61.4401 10.602C59.9147 10.602 58.7561 11.0787 57.9641 12.032C57.1867 12.9853 56.7981 14.386 56.7981 16.234C56.7981 18.0967 57.1867 19.5047 57.9641 20.458C58.7561 21.4113 59.9147 21.888 61.4401 21.888C62.0707 21.888 62.6501 21.7927 63.1781 21.602C63.7207 21.4113 64.3294 21.0887 65.0041 20.634C65.1507 20.546 65.2974 20.4727 65.4441 20.414C65.5907 20.3553 65.7447 20.326 65.9061 20.326C66.1554 20.326 66.3681 20.436 66.5441 20.656C66.7201 20.876 66.8081 21.1473 66.8081 21.47C66.8081 21.69 66.7714 21.888 66.6981 22.064C66.6247 22.2253 66.4927 22.3793 66.3021 22.526C65.6421 23.0687 64.8867 23.4867 64.0361 23.78C63.1854 24.0587 62.2761 24.198 61.3081 24.198ZM73.7374 24.176C72.6374 24.176 71.6694 23.9487 70.8334 23.494C70.012 23.0393 69.374 22.3867 68.9194 21.536C68.4647 20.6853 68.2374 19.6953 68.2374 18.566C68.2374 17.4367 68.4647 16.454 68.9194 15.618C69.374 14.7673 70.012 14.1147 70.8334 13.66C71.6694 13.2053 72.6374 12.978 73.7374 12.978C74.8374 12.978 75.798 13.2053 76.6194 13.66C77.4554 14.1147 78.0934 14.7673 78.5334 15.618C78.988 16.454 79.2154 17.4367 79.2154 18.566C79.2154 19.6953 78.988 20.6853 78.5334 21.536C78.0934 22.3867 77.4554 23.0393 76.6194 23.494C75.798 23.9487 74.8374 24.176 73.7374 24.176ZM73.7154 22.042C74.61 22.042 75.292 21.7487 75.7614 21.162C76.2307 20.5753 76.4654 19.71 76.4654 18.566C76.4654 17.4367 76.2307 16.5787 75.7614 15.992C75.292 15.3907 74.6174 15.09 73.7374 15.09C72.8574 15.09 72.1754 15.3907 71.6914 15.992C71.222 16.5787 70.9874 17.4367 70.9874 18.566C70.9874 19.71 71.222 20.5753 71.6914 21.162C72.1607 21.7487 72.8354 22.042 73.7154 22.042ZM90.4617 8.38C90.8723 8.38 91.2097 8.49733 91.4737 8.732C91.7377 8.96667 91.8697 9.27467 91.8697 9.656V22.812C91.8697 23.208 91.745 23.5233 91.4957 23.758C91.2463 23.9927 90.9163 24.11 90.5057 24.11C90.095 24.11 89.765 23.9927 89.5157 23.758C89.2663 23.5233 89.1417 23.208 89.1417 22.812V22.262C88.819 22.8633 88.3497 23.3327 87.7337 23.67C87.1323 24.0073 86.443 24.176 85.6657 24.176C84.7417 24.176 83.913 23.9413 83.1797 23.472C82.461 23.0027 81.8963 22.3427 81.4857 21.492C81.0897 20.6267 80.8917 19.6367 80.8917 18.522C80.8917 17.4073 81.0897 16.432 81.4857 15.596C81.8963 14.76 82.461 14.1147 83.1797 13.66C83.8983 13.2053 84.727 12.978 85.6657 12.978C86.443 12.978 87.1323 13.1393 87.7337 13.462C88.335 13.7847 88.797 14.2393 89.1197 14.826V9.612C89.1197 9.24533 89.237 8.952 89.4717 8.732C89.721 8.49733 90.051 8.38 90.4617 8.38ZM86.3917 22.042C87.2717 22.042 87.9463 21.7413 88.4157 21.14C88.8997 20.5387 89.1417 19.6807 89.1417 18.566C89.1417 17.4513 88.8997 16.6007 88.4157 16.014C87.9463 15.4127 87.279 15.112 86.4137 15.112C85.5337 15.112 84.8517 15.4053 84.3677 15.992C83.8837 16.5787 83.6417 17.422 83.6417 18.522C83.6417 19.6367 83.8837 20.502 84.3677 21.118C84.8517 21.734 85.5263 22.042 86.3917 22.042ZM103.213 21.052C103.462 21.052 103.66 21.1473 103.807 21.338C103.968 21.5287 104.049 21.7853 104.049 22.108C104.049 22.5627 103.777 22.944 103.235 23.252C102.736 23.5307 102.171 23.758 101.541 23.934C100.91 24.0953 100.309 24.176 99.7366 24.176C98.0059 24.176 96.6346 23.6773 95.6226 22.68C94.6106 21.6827 94.1046 20.3187 94.1046 18.588C94.1046 17.488 94.3246 16.5127 94.7646 15.662C95.2046 14.8113 95.8206 14.1513 96.6126 13.682C97.4192 13.2127 98.3286 12.978 99.3406 12.978C100.309 12.978 101.152 13.1907 101.871 13.616C102.589 14.0413 103.147 14.6427 103.543 15.42C103.939 16.1973 104.137 17.114 104.137 18.17C104.137 18.8007 103.858 19.116 103.301 19.116H96.8106C96.8986 20.128 97.1846 20.876 97.6686 21.36C98.1526 21.8293 98.8566 22.064 99.7806 22.064C100.25 22.064 100.661 22.0053 101.013 21.888C101.379 21.7707 101.79 21.6093 102.245 21.404C102.685 21.1693 103.007 21.052 103.213 21.052ZM99.4066 14.914C98.6586 14.914 98.0572 15.1487 97.6026 15.618C97.1626 16.0873 96.8986 16.762 96.8106 17.642H101.783C101.753 16.7473 101.533 16.0727 101.123 15.618C100.712 15.1487 100.14 14.914 99.4066 14.914ZM112.392 13.022C112.773 12.9927 113.074 13.0733 113.294 13.264C113.514 13.4547 113.624 13.7407 113.624 14.122C113.624 14.518 113.529 14.8113 113.338 15.002C113.147 15.1927 112.803 15.3173 112.304 15.376L111.644 15.442C110.779 15.53 110.141 15.8233 109.73 16.322C109.334 16.8207 109.136 17.444 109.136 18.192V22.812C109.136 23.2373 109.004 23.5673 108.74 23.802C108.476 24.022 108.146 24.132 107.75 24.132C107.354 24.132 107.024 24.022 106.76 23.802C106.511 23.5673 106.386 23.2373 106.386 22.812V14.298C106.386 13.8873 106.511 13.572 106.76 13.352C107.024 13.132 107.347 13.022 107.728 13.022C108.109 13.022 108.417 13.132 108.652 13.352C108.887 13.5573 109.004 13.858 109.004 14.254V15.134C109.283 14.4887 109.693 13.99 110.236 13.638C110.793 13.286 111.409 13.088 112.084 13.044L112.392 13.022ZM118.595 24.176C116.996 24.176 115.705 23.8607 114.723 23.23C114.253 22.9513 114.019 22.5553 114.019 22.042C114.019 21.7487 114.099 21.514 114.261 21.338C114.422 21.1473 114.62 21.052 114.855 21.052C115.104 21.052 115.449 21.1693 115.889 21.404C116.358 21.624 116.783 21.7927 117.165 21.91C117.561 22.0273 118.059 22.086 118.661 22.086C119.277 22.086 119.753 21.9833 120.091 21.778C120.443 21.5727 120.619 21.2867 120.619 20.92C120.619 20.6707 120.545 20.4727 120.399 20.326C120.267 20.1793 120.017 20.0473 119.651 19.93C119.299 19.798 118.756 19.6513 118.023 19.49C116.717 19.226 115.779 18.852 115.207 18.368C114.649 17.884 114.371 17.2167 114.371 16.366C114.371 15.7207 114.561 15.1413 114.943 14.628C115.324 14.1 115.845 13.6967 116.505 13.418C117.179 13.1247 117.942 12.978 118.793 12.978C119.409 12.978 120.003 13.0587 120.575 13.22C121.147 13.3667 121.66 13.5867 122.115 13.88C122.584 14.1733 122.819 14.562 122.819 15.046C122.819 15.3393 122.738 15.5887 122.577 15.794C122.415 15.9847 122.217 16.08 121.983 16.08C121.821 16.08 121.66 16.0507 121.499 15.992C121.352 15.9187 121.161 15.816 120.927 15.684C120.501 15.464 120.135 15.3027 119.827 15.2C119.519 15.0827 119.137 15.024 118.683 15.024C118.14 15.024 117.707 15.134 117.385 15.354C117.077 15.574 116.923 15.8747 116.923 16.256C116.923 16.6227 117.084 16.9013 117.407 17.092C117.729 17.2827 118.353 17.4733 119.277 17.664C120.259 17.8693 121.029 18.104 121.587 18.368C122.144 18.632 122.54 18.962 122.775 19.358C123.024 19.754 123.149 20.26 123.149 20.876C123.149 21.8733 122.731 22.6727 121.895 23.274C121.073 23.8753 119.973 24.176 118.595 24.176ZM131.67 12.978C134.193 12.978 135.454 14.452 135.454 17.4V22.812C135.454 23.2227 135.33 23.5453 135.08 23.78C134.846 24.0147 134.516 24.132 134.09 24.132C133.665 24.132 133.328 24.0147 133.078 23.78C132.829 23.5453 132.704 23.2227 132.704 22.812V17.4C132.704 16.6227 132.543 16.058 132.22 15.706C131.912 15.3393 131.421 15.156 130.746 15.156C129.954 15.156 129.316 15.4053 128.832 15.904C128.363 16.4027 128.128 17.07 128.128 17.906V22.812C128.128 23.2227 128.004 23.5453 127.754 23.78C127.505 24.0147 127.168 24.132 126.742 24.132C126.317 24.132 125.98 24.0147 125.73 23.78C125.496 23.5453 125.378 23.2227 125.378 22.812V9.656C125.378 9.27467 125.503 8.96667 125.752 8.732C126.016 8.49733 126.354 8.38 126.764 8.38C127.175 8.38 127.505 8.49 127.754 8.71C128.004 8.93 128.128 9.23067 128.128 9.612V14.738C128.495 14.166 128.979 13.7333 129.58 13.44C130.196 13.132 130.893 12.978 131.67 12.978ZM143.153 24.176C142.053 24.176 141.085 23.9487 140.249 23.494C139.428 23.0393 138.79 22.3867 138.335 21.536C137.881 20.6853 137.653 19.6953 137.653 18.566C137.653 17.4367 137.881 16.454 138.335 15.618C138.79 14.7673 139.428 14.1147 140.249 13.66C141.085 13.2053 142.053 12.978 143.153 12.978C144.253 12.978 145.214 13.2053 146.035 13.66C146.871 14.1147 147.509 14.7673 147.949 15.618C148.404 16.454 148.631 17.4367 148.631 18.566C148.631 19.6953 148.404 20.6853 147.949 21.536C147.509 22.3867 146.871 23.0393 146.035 23.494C145.214 23.9487 144.253 24.176 143.153 24.176ZM143.131 22.042C144.026 22.042 144.708 21.7487 145.177 21.162C145.647 20.5753 145.881 19.71 145.881 18.566C145.881 17.4367 145.647 16.5787 145.177 15.992C144.708 15.3907 144.033 15.09 143.153 15.09C142.273 15.09 141.591 15.3907 141.107 15.992C140.638 16.5787 140.403 17.4367 140.403 18.566C140.403 19.71 140.638 20.5753 141.107 21.162C141.577 21.7487 142.251 22.042 143.131 22.042ZM159.394 13.022C159.819 13.022 160.156 13.1393 160.406 13.374C160.655 13.6087 160.78 13.924 160.78 14.32V22.856C160.78 23.2373 160.648 23.5453 160.384 23.78C160.134 24.0147 159.804 24.132 159.394 24.132C158.998 24.132 158.682 24.022 158.448 23.802C158.213 23.582 158.096 23.2813 158.096 22.9V22.35C157.758 22.9367 157.304 23.3913 156.732 23.714C156.16 24.022 155.514 24.176 154.796 24.176C152.156 24.176 150.836 22.6947 150.836 19.732V14.32C150.836 13.924 150.96 13.6087 151.21 13.374C151.459 13.1393 151.789 13.022 152.2 13.022C152.625 13.022 152.962 13.1393 153.212 13.374C153.461 13.6087 153.586 13.924 153.586 14.32V19.754C153.586 20.5167 153.74 21.0813 154.048 21.448C154.356 21.8147 154.84 21.998 155.5 21.998C156.262 21.998 156.871 21.7487 157.326 21.25C157.795 20.7367 158.03 20.062 158.03 19.226V14.32C158.03 13.924 158.154 13.6087 158.404 13.374C158.653 13.1393 158.983 13.022 159.394 13.022ZM167.536 24.176C165.937 24.176 164.647 23.8607 163.664 23.23C163.195 22.9513 162.96 22.5553 162.96 22.042C162.96 21.7487 163.041 21.514 163.202 21.338C163.363 21.1473 163.561 21.052 163.796 21.052C164.045 21.052 164.39 21.1693 164.83 21.404C165.299 21.624 165.725 21.7927 166.106 21.91C166.502 22.0273 167.001 22.086 167.602 22.086C168.218 22.086 168.695 21.9833 169.032 21.778C169.384 21.5727 169.56 21.2867 169.56 20.92C169.56 20.6707 169.487 20.4727 169.34 20.326C169.208 20.1793 168.959 20.0473 168.592 19.93C168.24 19.798 167.697 19.6513 166.964 19.49C165.659 19.226 164.72 18.852 164.148 18.368C163.591 17.884 163.312 17.2167 163.312 16.366C163.312 15.7207 163.503 15.1413 163.884 14.628C164.265 14.1 164.786 13.6967 165.446 13.418C166.121 13.1247 166.883 12.978 167.734 12.978C168.35 12.978 168.944 13.0587 169.516 13.22C170.088 13.3667 170.601 13.5867 171.056 13.88C171.525 14.1733 171.76 14.562 171.76 15.046C171.76 15.3393 171.679 15.5887 171.518 15.794C171.357 15.9847 171.159 16.08 170.924 16.08C170.763 16.08 170.601 16.0507 170.44 15.992C170.293 15.9187 170.103 15.816 169.868 15.684C169.443 15.464 169.076 15.3027 168.768 15.2C168.46 15.0827 168.079 15.024 167.624 15.024C167.081 15.024 166.649 15.134 166.326 15.354C166.018 15.574 165.864 15.8747 165.864 16.256C165.864 16.6227 166.025 16.9013 166.348 17.092C166.671 17.2827 167.294 17.4733 168.218 17.664C169.201 17.8693 169.971 18.104 170.528 18.368C171.085 18.632 171.481 18.962 171.716 19.358C171.965 19.754 172.09 20.26 172.09 20.876C172.09 21.8733 171.672 22.6727 170.836 23.274C170.015 23.8753 168.915 24.176 167.536 24.176ZM182.834 21.052C183.083 21.052 183.281 21.1473 183.428 21.338C183.589 21.5287 183.67 21.7853 183.67 22.108C183.67 22.5627 183.398 22.944 182.856 23.252C182.357 23.5307 181.792 23.758 181.162 23.934C180.531 24.0953 179.93 24.176 179.358 24.176C177.627 24.176 176.256 23.6773 175.244 22.68C174.232 21.6827 173.726 20.3187 173.726 18.588C173.726 17.488 173.946 16.5127 174.386 15.662C174.826 14.8113 175.442 14.1513 176.234 13.682C177.04 13.2127 177.95 12.978 178.962 12.978C179.93 12.978 180.773 13.1907 181.492 13.616C182.21 14.0413 182.768 14.6427 183.164 15.42C183.56 16.1973 183.758 17.114 183.758 18.17C183.758 18.8007 183.479 19.116 182.922 19.116H176.432C176.52 20.128 176.806 20.876 177.29 21.36C177.774 21.8293 178.478 22.064 179.402 22.064C179.871 22.064 180.282 22.0053 180.634 21.888C181 21.7707 181.411 21.6093 181.866 21.404C182.306 21.1693 182.628 21.052 182.834 21.052ZM179.028 14.914C178.28 14.914 177.678 15.1487 177.224 15.618C176.784 16.0873 176.52 16.762 176.432 17.642H181.404C181.374 16.7473 181.154 16.0727 180.744 15.618C180.333 15.1487 179.761 14.914 179.028 14.914Z" fill="white"/>
<path d="M5.08959 7.59635C6.07375 7.04821 7.55731 7.15334 8.44095 7.73485L7.42748 6.56098C6.61189 5.63406 6.904 4.63123 8.06823 3.98047C9.23247 3.33221 12.5315 5.07508 12.5315 5.07508C11.7086 4.13899 11.8625 2.9526 13.0372 2.296C14.2119 1.64191 15.8326 1.868 16.6555 2.80576L27.565 15.0868L26.1746 25.8285L14.571 22.4562L4.44989 10.4981C3.61964 9.55614 3.90651 8.25712 5.08959 7.59635Z" fill="#EF9645"/>
<path d="M2.82164 14.4285C2.82164 14.4285 1.63646 13.0519 3.36502 12.1083C5.09147 11.1647 6.2756 12.5405 6.2756 12.5405L11.7733 18.9296C11.9628 18.6776 12.1701 18.429 12.4014 18.1837L4.7711 9.31753C4.7711 9.31753 3.58697 7.94176 5.31448 6.99816C7.04094 6.05456 8.22506 7.43033 8.22506 7.43033L15.4021 15.7709C15.669 15.5974 15.9423 15.423 16.2239 15.252L7.90364 5.58151C7.90364 5.58151 6.71952 4.20574 8.44702 3.26214C10.1735 2.31853 11.3576 3.69431 11.3576 3.69431L19.6779 13.3631C19.9836 13.2137 20.2862 13.0844 20.5898 12.9476L12.8129 3.91039C12.8129 3.91039 11.6288 2.53462 13.3552 1.59102C15.0817 0.647419 16.2658 2.02319 16.2658 2.02319L24.4887 11.5793L25.7388 13.0327C20.5584 15.8643 20.0653 21.1914 23.0251 24.6312C23.6166 25.3195 24.4804 24.8482 24.4804 24.8482C20.928 20.7192 22.0127 16.0796 27.1941 13.2488L25.6666 7.15668C25.6666 7.15668 25.096 5.55147 27.1093 5.09594C29.1237 4.64124 29.6953 6.24645 29.6953 6.24645L31.4595 10.4213C32.1589 12.0766 32.9033 13.726 33.8885 15.2862C36.6703 19.6913 35.0087 25.166 29.7634 28.0335C24.0417 31.1597 16.2198 29.9975 12.2957 25.4388L2.82164 14.4285Z" fill="#FFDC5D"/>
<path d="M12.5635 26.6978C8.37562 26.6978 4.14375 23.3256 4.14375 19.9883C4.14375 19.527 3.71973 19.154 3.14075 19.154C2.56177 19.154 2.0498 19.527 2.0498 19.9883C2.0498 24.9942 6.28167 28.3664 12.5635 28.3664C13.1425 28.3664 13.6105 27.9585 13.6105 27.4971C13.6105 27.0357 13.1425 26.6978 12.5635 26.6978Z" fill="#5DADEC"/>
<path d="M7.32881 28.3314C4.18789 28.3314 2.09395 26.6628 2.09395 24.1599C2.09395 23.6985 1.62595 23.3256 1.04697 23.3256C0.467997 23.3256 0 23.6985 0 24.1599C0 27.4971 3.14092 30 7.32881 30C7.90779 30 8.37578 29.6271 8.37578 29.1657C8.37578 28.7043 7.90779 28.3314 7.32881 28.3314ZM25.1274 1.63358C24.5494 1.63358 24.0804 2.00734 24.0804 2.46788C24.0804 2.92842 24.5494 3.30219 25.1274 3.30219C29.3152 3.30219 33.5031 6.29652 33.5031 9.97664C33.5031 10.4372 33.9722 10.8109 34.5501 10.8109C35.128 10.8109 35.5971 10.4372 35.5971 9.97664C35.5971 5.37628 31.4092 1.63358 25.1274 1.63358Z" fill="#5DADEC"/>
<path d="M30.3624 0C29.7845 0 29.3154 0.338729 29.3154 0.799266C29.3154 1.2598 29.7845 1.66861 30.3624 1.66861C33.5033 1.66861 35.5533 3.52495 35.5533 5.80511C35.5533 6.26564 36.0653 6.63941 36.6442 6.63941C37.2232 6.63941 37.6472 6.26564 37.6472 5.80511C37.6472 2.60387 34.5503 0 30.3624 0Z" fill="#5DADEC"/>
</svg>
